<?xml version="1.0" encoding="utf-8"?>
<svg version="1.1" viewBox="0 0 36 36" preserveAspectRatio="xMidYMid meet" xmlns="http://www.w3.org/2000/svg">
  <title>beta-solid</title>
  <path class="clr-i-solid clr-i-solid-path-1" d="M 34.11 24.49 L 30.19 17.87 L 34.07 11.52 C 34.47 10.862 34.009 10.018 33.239 10 C 33.233 10 33.226 10 33.22 10 L 2 10 C 0.895 10 0 10.895 0 12 L 0 24 C 0 25.105 0.895 26 2 26 L 33.25 26 C 34.02 26 34.501 25.166 34.116 24.5 C 34.114 24.497 34.112 24.493 34.11 24.49 Z" style="fill: rgb(0, 0, 255);"/>
  <path d="M 1.916 22.17 L 1.916 13.45 L 4.566 13.45 C 5.586 13.45 6.349 13.65 6.856 14.05 C 7.356 14.457 7.606 15.007 7.606 15.7 C 7.606 16.053 7.513 16.397 7.326 16.73 C 7.133 17.063 6.876 17.317 6.556 17.49 C 6.823 17.623 7.063 17.8 7.276 18.02 C 7.483 18.247 7.649 18.5 7.776 18.78 C 7.896 19.053 7.956 19.33 7.956 19.61 C 7.956 20.403 7.673 21.03 7.106 21.49 C 6.533 21.943 5.679 22.17 4.546 22.17 L 1.916 22.17 Z M 3.486 16.85 L 4.436 16.85 C 4.996 16.85 5.403 16.753 5.656 16.56 C 5.909 16.373 6.036 16.117 6.036 15.79 C 6.036 15.597 5.983 15.423 5.876 15.27 C 5.763 15.11 5.599 14.983 5.386 14.89 C 5.166 14.797 4.896 14.75 4.576 14.75 L 3.486 14.75 L 3.486 16.85 Z M 3.486 20.84 L 4.696 20.84 C 5.223 20.84 5.623 20.743 5.896 20.55 C 6.176 20.357 6.316 20.03 6.316 19.57 C 6.316 19.13 6.169 18.78 5.876 18.52 C 5.576 18.253 5.109 18.12 4.476 18.12 L 3.486 18.12 L 3.486 20.84 ZM 14.796 22.17 L 9.146 22.17 L 9.146 13.45 L 14.826 13.45 L 14.826 14.79 L 10.666 14.79 L 10.666 16.95 L 14.116 16.95 L 14.116 18.32 L 10.666 18.32 L 10.666 20.82 L 14.796 20.82 L 14.796 22.17 ZM 19.606 22.17 L 18.006 22.17 L 18.006 14.81 L 15.636 14.81 L 15.636 13.45 L 22.066 13.45 L 22.066 14.81 L 19.606 14.81 L 19.606 22.17 ZM 29.236 22.17 L 27.596 22.17 L 26.966 19.91 L 24.746 19.91 L 24.106 22.17 L 22.496 22.17 L 25.406 13.45 L 26.316 13.45 L 29.236 22.17 Z M 25.866 15.93 L 25.046 18.83 L 26.666 18.83 L 25.866 15.93 Z" transform="matrix(1, 0, 0, 1, 0, 0)" style="fill: rgb(255, 255, 255); white-space: pre;"/>
</svg>