<?xml version="1.0" encoding="iso-8859-1"?>
<!-- Generator: Adobe Illustrator 18.1.1, SVG Export Plug-In . SVG Version: 6.00 Build 0)  -->
<svg xmlns="http://www.w3.org/2000/svg" xmlns:xlink="http://www.w3.org/1999/xlink" version="1.1" id="Capa_1" x="0px" y="0px" viewBox="0 0 16 16" style="enable-background:new 0 0 16 16;" xml:space="preserve" width="512px" height="512px">
<g>
	<path d="M3,12V7c0-2.209,1.791-4,4-4h4c0.346,0,0.681-0.005,1-0.005C11.999,1.341,10.657,0,9.003,0H2.997   C1.342,0,0,1.342,0,2.997v6.006C0,10.658,1.342,12,2.997,12H3z" fill="#FFDA44"/>
	<path d="M13.003,4H6.997C5.342,4,4,5.342,4,6.997v6.006C4,14.658,5.342,16,6.997,16h6.006   C14.658,16,16,14.658,16,13.003V6.997C16,5.342,14.658,4,13.003,4z" fill="#FFDA44"/>
</g>
<g>
</g>
<g>
</g>
<g>
</g>
<g>
</g>
<g>
</g>
<g>
</g>
<g>
</g>
<g>
</g>
<g>
</g>
<g>
</g>
<g>
</g>
<g>
</g>
<g>
</g>
<g>
</g>
<g>
</g>
</svg>
