<svg xmlns="http://www.w3.org/2000/svg" xmlns:xlink="http://www.w3.org/1999/xlink" viewBox="0 0 74.58 37.16"><defs><style>.cls-1{fill:none;}.cls-2{fill:#265791;}.cls-3{isolation:isolate;}.cls-4{clip-path:url(#clip-path);}.cls-5{clip-path:url(#clip-path-2);}.cls-6{clip-path:url(#clip-path-3);}.cls-7{fill:#3b8bff;}.cls-8{fill:#336bba;}.cls-9{clip-path:url(#clip-path-4);}</style><clipPath id="clip-path" transform="translate(0 -0.57)"><polygon class="cls-1" points="0.1 2.67 24.5 0 24.87 31.1 0.47 33.77 0.1 2.67"/></clipPath><clipPath id="clip-path-2" transform="translate(0 -0.57)"><polygon class="cls-1" points="73.37 4.36 73.73 35.46 24.86 31.18 24.5 0.09 73.37 4.36"/></clipPath><clipPath id="clip-path-3" transform="translate(0 -0.57)"><polygon class="cls-1" points="49.85 7.02 50.22 38.12 0.47 33.77 0.1 2.67 49.85 7.02"/></clipPath><clipPath id="clip-path-4" transform="translate(0 -0.57)"><polygon class="cls-1" points="74.25 4.35 74.62 35.45 50.22 38.12 49.85 7.02 74.25 4.35"/></clipPath><symbol id="mkt_top" data-name="mkt_top" viewBox="0 0 71 36"><rect class="cls-2" width="71" height="36" rx="4" ry="4"/></symbol></defs><title>Asset 38</title><g id="Layer_2" data-name="Layer 2"><g id="Layer_1-2" data-name="Layer 1"><use id="mkt_top-3" data-name="mkt_top" width="71" height="36" transform="translate(35.24 10.99) scale(0.3 0.69)" xlink:href="#mkt_top"/><g class="cls-3"><g class="cls-3"><g class="cls-4"><path class="cls-2" d="M23.51,27.76,2.75,30c-.73.08-1.34-1.21-1.36-2.87L1.15,6.05c0-1.66.55-3.08,1.28-3.16L23.19.62c.72-.08,1.33,1.21,1.35,2.87l.25,21.11c0,1.66-.56,3.08-1.28,3.16" transform="translate(0 -0.57)"/></g></g><g class="cls-3"><g class="cls-5"><path class="cls-2" d="M28,30.76l41.44,3.62c1.45.13,2.61-1.27,2.59-3.12L71.74,7.78c0-1.84-1.23-3.45-2.67-3.58L27.63.58C26.18.45,25,1.86,25,3.7l.28,23.47c0,1.85,1.22,3.46,2.67,3.59" transform="translate(0 -0.57)"/></g></g><g class="cls-3"><g class="cls-6"><path class="cls-7" d="M14.4,7.72c.76.14,1.31.68,1.2,1.19-1.16,6.09-3.34,13-1.93,18.79.15.61-.51,1.08-1.39,1h0l-1.76-.2c-.82-.09-1.45-.64-1.37-1.19L12.77,8.42c.07-.48.68-.8,1.38-.74l.21,0h0m8.45,1c.86.07,1.53.65,1.42,1.22-1.16,6-3.38,13-2,18.89.15.61-.51,1.08-1.38,1h-.05l-1.77-.21c-.82-.09-1.45-.63-1.37-1.19l3.68-19c.08-.48.67-.79,1.38-.74h.05m8.72.77c.85.07,1.51.65,1.4,1.22-1.12,5.76-3.46,13.22-2,19.2.15.6-.52,1.07-1.39,1h-.05l-1.76-.19c-.83-.09-1.45-.65-1.37-1.2l3.73-19.29c.07-.49.67-.8,1.38-.74h.07m8.7.75c.85.08,1.52.66,1.41,1.22-1.07,5.48-3.56,13.44-2.08,19.53.15.61-.52,1.07-1.38,1h0l-1.77-.19c-.82-.1-1.45-.65-1.37-1.2l3.78-19.62c.07-.48.67-.79,1.38-.74h.08m1.25,27.24c2.92.26,4.89.27,5.34-.07,1.7-.58,3.08-4.24,3.19-8.75.46-2.69.43-9.84-1.82-19.89-.1-.43-.48-.71-1.43-.88-8.54-1.51-31.07-3.79-44-5l-.21,0A2.91,2.91,0,0,0,.84,3,1.26,1.26,0,0,0,.32,4.12a107.94,107.94,0,0,0,.92,24.51,2.79,2.79,0,0,0,1,2.06,6.17,6.17,0,0,0,2.38.83c10,2.07,27.91,5.13,36.87,5.91" transform="translate(0 -0.57)"/><path class="cls-8" d="M38.22,31.94c.86.07,1.53-.39,1.38-1-1.48-6.09,1-14,2.08-19.53.11-.56-.56-1.14-1.41-1.22h-.08c-.71,0-1.31.26-1.38.74L35,30.54c-.08.55.55,1.1,1.37,1.2l1.77.19h0" transform="translate(0 -0.57)"/><path class="cls-8" d="M29.57,30.86c.87.07,1.54-.4,1.39-1-1.45-6,.89-13.44,2-19.2.11-.57-.55-1.15-1.4-1.22H31.5c-.71-.06-1.31.25-1.38.74L26.39,29.46c-.08.55.54,1.11,1.37,1.2l1.76.19h.05" transform="translate(0 -0.57)"/><path class="cls-8" d="M20.93,29.78c.87.08,1.53-.39,1.38-1-1.42-5.88.8-12.88,2-18.89.11-.57-.56-1.15-1.42-1.22H22.8c-.71-.05-1.3.26-1.38.74l-3.68,19c-.08.56.55,1.1,1.37,1.19l1.77.21h.05" transform="translate(0 -0.57)"/><path class="cls-8" d="M12.28,28.7c.88.08,1.54-.39,1.39-1-1.41-5.84.77-12.7,1.93-18.79.11-.51-.44-1-1.2-1.19h0l-.21,0c-.7-.06-1.31.26-1.38.74L9.1,27.31c-.08.55.55,1.1,1.37,1.19l1.76.2h0" transform="translate(0 -0.57)"/></g></g><g class="cls-3"><g class="cls-9"><path class="cls-7" d="M63.64,9.94a.86.86,0,0,1,1,1c-.71,5.65-2.39,14-1.35,19.9a1.07,1.07,0,0,1-.94,1.21h0l-1.21.09a.87.87,0,0,1-1-1l2.52-20.27a1.08,1.08,0,0,1,.94-1h.06m-6,27.49a66.71,66.71,0,0,0,15.65-3.49,1.52,1.52,0,0,0,1-.87c.48-.81.25-1.46.21-2.52-.33-8.09-.4-14.16-2.47-23.81a3.44,3.44,0,0,0-.82-1.49,2.09,2.09,0,0,0-1.65-.51c-8.89,1-19.5,2.89-19.5,2.89.66,0,.92.23,1,.65,1.58,9.7,1.63,16.86,1.33,19.63-.06,4.54-1,8.43-2.16,9.29.31.65,3.44.67,7.47.23" transform="translate(0 -0.57)"/><path class="cls-8" d="M62.32,32.05a1.07,1.07,0,0,0,.94-1.21c-1-5.87.64-14.25,1.35-19.9a.86.86,0,0,0-1-1h-.06a1.08,1.08,0,0,0-.94,1L60.12,31.18a.87.87,0,0,0,1,1l1.21-.09h0" transform="translate(0 -0.57)"/></g></g></g></g></g></svg>