<svg xmlns="http://www.w3.org/2000/svg" viewBox="0 0 46 59.39"><defs><style>.cls-1{fill:#bc8b4b;}</style></defs><title>Asset 67</title><g id="Layer_2" data-name="Layer 2"><g id="Layer_1-2" data-name="Layer 1"><path class="cls-1" d="M3.14,12.56l2,.48C9.49,14.08,16,15.66,23,15.66a95.71,95.71,0,0,0,18.93-1.8l1-.18c.07.94.12,2.36.12,4.53V45.93a6.41,6.41,0,0,1-1.9,4.81A31.86,31.86,0,0,1,23,56.39c-9.54,0-16.57-3.52-18-4.81C4,50.7,3,48,3,45.93V17.51c0-1.06,0-3.35.14-5M1.49,9.25A.78.78,0,0,0,1,9.39C-.11,10.5,0,15.54,0,18.21V45.93c0,2.45,1.05,6.23,3,7.92,2.2,1.91,10,5.54,20,5.54s17.8-4.54,20-6.33a9.29,9.29,0,0,0,3-7.13V18.21c0-2.82,0-7.82-1-7.82-2.6,0-9,2.27-22,2.27-9.89,0-19.1-3.41-21.51-3.41Z"/><path class="cls-1" d="M23,3C33.34,3,39.32,4.44,41.49,5.45a8.78,8.78,0,0,1-4.08,1.6A71.89,71.89,0,0,1,24.93,8C15.88,8,8.77,6.41,5.5,5.06,8.24,4.11,14,3,23,3m0-3C10.3,0,1,2.24,1,5s10.9,6,23.93,6a74.54,74.54,0,0,0,13-1C43.11,9.08,45,6.6,45,5c0-2.76-9.3-5-22-5Z"/></g></g></svg>