<?xml version="1.0" encoding="utf-8"?>
<svg viewBox="0 0 65.95 37.23" xmlns="http://www.w3.org/2000/svg">
  <defs>
    <style>.cls-1{fill:#3b8bff;stroke:#3b8bff;}.cls-1,.cls-2{stroke-miterlimit:10;stroke-width:0.23px;}.cls-2{fill:#26384c;stroke:#26384c;}</style>
  </defs>
  <title>Asset 57</title>
  <g id="Layer_2" data-name="Layer 2">
    <g id="Layer_1-2" data-name="Layer 1" transform="matrix(1.072879, -0.014384, 0.013339, 0.994901, 2.727462, 0.704916)">
      <path class="cls-1" d="M 17.261 18.501 C 10.211 18.901 2.867 18.114 2.867 18.114 C 2.867 18.114 -2.615 14.753 3.261 14.553 C 9.135 14.353 17.261 14.501 17.261 14.501 C 17.261 14.501 15.865 6.381 16.086 6.501 C 16.865 6.941 27.836 16.371 28.027 17.311 C 28.115 17.891 17.966 28.311 16.086 28.501 C 15.851 28.521 17.54 18.481 17.261 18.501 Z"/>
      <path class="cls-1" d="M 52.286 18.671 C 50.271 18.847 34.89 18.687 34.89 18.687 C 34.89 18.687 32.598 17.02 34.278 16.932 C 35.957 16.844 52.286 16.909 52.286 16.909 C 52.286 16.909 51.887 13.332 51.95 13.384 C 52.173 13.578 55.309 17.733 55.364 18.147 C 55.389 18.403 52.488 22.993 51.95 23.077 C 51.883 23.086 52.366 18.662 52.286 18.671 Z" style="fill: rgb(59, 139, 255); stroke: rgb(59, 139, 255); stroke-miterlimit: 10; stroke-width: 0.23px;"/>
      <path class="cls-1" d="M 51.81 9.117 C 49.795 9.293 34.414 9.133 34.414 9.133 C 34.414 9.133 32.122 7.466 33.802 7.378 C 35.481 7.29 51.81 7.355 51.81 7.355 C 51.81 7.355 51.411 3.778 51.474 3.83 C 51.697 4.024 54.833 8.179 54.888 8.593 C 54.913 8.849 52.012 13.439 51.474 13.523 C 51.407 13.532 51.89 9.108 51.81 9.117 Z" style="fill: rgb(59, 139, 255); stroke: rgb(59, 139, 255); stroke-miterlimit: 10; stroke-width: 0.23px;" transform="matrix(0.940183, -0.367371, 0.31591, 0.940183, -0.106724, 16.697039)"/>
      <path class="cls-1" d="M 51.686 28.933 C 49.671 29.109 34.29 28.949 34.29 28.949 C 34.29 28.949 31.998 27.282 33.678 27.194 C 35.357 27.106 51.686 27.171 51.686 27.171 C 51.686 27.171 51.287 23.594 51.35 23.646 C 51.573 23.84 54.709 27.995 54.764 28.409 C 54.789 28.665 51.888 33.255 51.35 33.339 C 51.283 33.348 51.766 28.924 51.686 28.933 Z" style="fill: rgb(59, 139, 255); stroke: rgb(59, 139, 255); stroke-miterlimit: 10; stroke-width: 0.23px;" transform="matrix(0.955519, 0.318045, -0.273493, 0.955519, 9.745744, -12.699067)"/>
      <path class="cls-1" d="M 38.375 19.329 C 36.36 19.505 16.04 19.225 16.04 19.225 C 16.04 19.225 15.17 17.588 16.85 17.5 C 18.529 17.412 38.375 17.567 38.375 17.567 C 38.375 17.567 42.274 17.598 42.356 17.599 C 42.653 17.601 44.549 17.542 44.604 17.956 C 44.629 18.212 44.186 19.177 43.648 19.261 C 43.581 19.27 38.455 19.32 38.375 19.329 Z" style="fill: rgb(59, 139, 255); stroke: rgb(59, 139, 255); stroke-miterlimit: 10; stroke-width: 0.23px;" transform="matrix(0.011066, -1.078312, 0.927262, 0.011065, 13.056584, 51.174015)"/>
    </g>
  </g>
</svg>