<svg xmlns="http://www.w3.org/2000/svg" xmlns:xlink="http://www.w3.org/1999/xlink" viewBox="0 0 74.58 37.38"><defs><style>.cls-1{fill:none;}.cls-2{fill:#725f72;}.cls-3{isolation:isolate;}.cls-4{clip-path:url(#clip-path);}.cls-5{clip-path:url(#clip-path-2);}.cls-6{clip-path:url(#clip-path-3);}.cls-7{fill:#a082a0;}.cls-8{fill:#71657f;}.cls-9{clip-path:url(#clip-path-4);}</style><clipPath id="clip-path" transform="translate(0 -0.35)"><polygon class="cls-1" points="0.1 2.67 24.49 0 24.86 31.1 0.46 33.76 0.1 2.67"/></clipPath><clipPath id="clip-path-2" transform="translate(0 -0.35)"><polygon class="cls-1" points="73.36 4.36 73.72 35.46 24.86 31.18 24.49 0.09 73.36 4.36"/></clipPath><clipPath id="clip-path-3" transform="translate(0 -0.35)"><polygon class="cls-1" points="49.85 7.02 50.22 38.12 0.46 33.76 0.1 2.67 49.85 7.02"/></clipPath><clipPath id="clip-path-4" transform="translate(0 -0.35)"><polygon class="cls-1" points="74.24 4.35 74.61 35.45 50.22 38.12 49.85 7.02 74.24 4.35"/></clipPath></defs><title>Asset 42</title><g id="Layer_2" data-name="Layer 2"><g id="Layer_1-2" data-name="Layer 1"><g id="mkt_side"><rect class="cls-2" x="32.23" y="16.21" width="29" height="20" rx="10" ry="10"/><g class="cls-3"><g class="cls-3"><g class="cls-4"><path class="cls-2" d="M23.36,28.69,3,30.91c-.71.08-1.3-1.26-1.33-3L1.46,6.11c0-1.71.54-3.17,1.25-3.25L23,.64c.71-.08,1.31,1.26,1.33,3l.25,21.81c0,1.72-.54,3.19-1.25,3.27" transform="translate(0 -0.35)"/></g></g><g class="cls-3"><g class="cls-5"><path class="cls-2" d="M28,29.62l41.32,3.61c1.44.13,2.61-1.23,2.58-3L71.6,7.45c0-1.78-1.22-3.35-2.66-3.47L27.62.36C26.17.24,25,1.59,25,3.38l.26,22.75c0,1.79,1.22,3.36,2.67,3.49" transform="translate(0 -0.35)"/></g></g><g class="cls-3"><g class="cls-6"><path class="cls-7" d="M22.05,8.73a.88.88,0,0,1,.81.58c1.79,6.14,3.14,13.74,7,18.4.41.49.06,1.29-.73,1.66l-1.55.75a1.76,1.76,0,0,1-.87.17.86.86,0,0,1-.8-.56L20.29,10.35A1.27,1.27,0,0,1,21.09,9l0,0a1.76,1.76,0,0,1,.94-.21m19.46,28.7c2.92.26,4.9.27,5.34-.07,1.71-.58,3.08-4.24,3.2-8.75.45-2.69.42-9.84-1.82-19.89-.1-.43-.48-.71-1.44-.88-8.53-1.51-31.06-3.79-44-5l-.2,0A3,3,0,0,0,.83,3,1.25,1.25,0,0,0,.32,4.12a108.51,108.51,0,0,0,.91,24.51,2.8,2.8,0,0,0,1,2.06,6.18,6.18,0,0,0,2.37.83c10,2.07,27.91,5.13,36.87,5.91" transform="translate(0 -0.35)"/><path class="cls-8" d="M26.71,30.29a1.76,1.76,0,0,0,.87-.17l1.55-.75c.79-.37,1.14-1.17.73-1.66-3.86-4.66-5.21-12.26-7-18.4a.88.88,0,0,0-.81-.58,1.76,1.76,0,0,0-.94.21l0,0a1.27,1.27,0,0,0-.8,1.39l5.62,19.38a.86.86,0,0,0,.8.56" transform="translate(0 -0.35)"/></g></g><g class="cls-3"><g class="cls-9"><path class="cls-7" d="M60,10.53a.5.5,0,0,1,.56.44c1.12,5.35,2.23,13.73,5,17.92a1.61,1.61,0,0,1-.5,1.78l-1.06,1a1.06,1.06,0,0,1-.59.31.49.49,0,0,1-.56-.42L58.79,12.45a1.78,1.78,0,0,1,.55-1.53l0,0a1.09,1.09,0,0,1,.64-.35m-2.34,26.9a66.74,66.74,0,0,0,15.64-3.49,1.54,1.54,0,0,0,1-.86c.48-.82.25-1.47.2-2.53-.32-8.09-.4-14.16-2.46-23.81a3.46,3.46,0,0,0-.83-1.49,2.05,2.05,0,0,0-1.64-.51c-8.9,1-19.5,2.89-19.5,2.89.65,0,.91.23,1,.65,1.58,9.7,1.62,16.86,1.32,19.63-.06,4.54-1,8.43-2.16,9.29.32.65,3.45.67,7.48.23" transform="translate(0 -0.35)"/><path class="cls-8" d="M63.42,32a1.06,1.06,0,0,0,.59-.31l1.06-1a1.61,1.61,0,0,0,.5-1.78c-2.77-4.19-3.88-12.57-5-17.92a.5.5,0,0,0-.56-.44,1.09,1.09,0,0,0-.64.35l0,0a1.78,1.78,0,0,0-.55,1.53l4.07,19.11a.49.49,0,0,0,.56.42" transform="translate(0 -0.35)"/></g></g></g></g></g></g></svg>