<?xml version="1.0" encoding="utf-8"?>
<!-- Generator: Adobe Illustrator 21.1.0, SVG Export Plug-In . SVG Version: 6.00 Build 0)  -->
<svg version="1.1" id="Layer_1" xmlns="http://www.w3.org/2000/svg" xmlns:xlink="http://www.w3.org/1999/xlink" x="0px" y="0px"
	 viewBox="0 0 35 35" style="enable-background:new 0 0 35 35;" xml:space="preserve">
<style type="text/css">
	.st0{fill:#ffdc00;}
</style>
<g>
	<polygon id="Fill-2" class="st0" points="0.8,7.1 7.7,10.1 16.4,6.5 9.7,3.5 	"/>
	<polygon id="Fill-3" class="st0" points="0.3,16.6 7.1,19.7 7.1,10.8 0.3,7.8 	"/>
	<polygon id="Fill-4" class="st0" points="27.1,20.2 27.1,11.3 18,15.3 18,24.3 	"/>
	<polygon id="Fill-5" class="st0" points="8.8,10.6 17.6,14.5 26.2,10.7 17.6,7 	"/>
	<polygon id="Fill-6" class="st0" points="8,20.1 17.2,24.3 17.2,15.3 8,11.2 	"/>
	<polygon id="Fill-7" class="st0" points="8,30.8 17.2,34.8 17.2,25.3 8,21.1 	"/>
	<polygon id="Fill-8" class="st0" points="35,7.8 28,10.9 28,19.8 35,16.7 	"/>
	<polygon id="Fill-9" class="st0" points="0.3,27.3 7.1,30.4 7.1,20.7 0.3,17.6 	"/>
	<polygon id="Fill-10" class="st0" points="28,20.8 28,30.4 35,27.3 35,17.7 	"/>
	<polygon id="Fill-11" class="st0" points="18,25.3 18,34.8 27.1,30.8 27.1,21.2 	"/>
	<polygon id="Fill-12" class="st0" points="17.6,6 24.4,3.1 17.6,0.4 10.8,3.1 	"/>
	<polygon id="Fill-13" class="st0" points="25.6,3.6 18.7,6.5 27.3,10.2 34.4,7.1 	"/>
</g>
</svg>
