<svg xmlns="http://www.w3.org/2000/svg" viewBox="0 0 43.84 53.3"><defs><style>.cls-1{fill:none;stroke:#9b3139;stroke-miterlimit:10;}.cls-2{fill:#9b3139;}</style></defs><title>Asset 48</title><g id="Layer_2" data-name="Layer 2"><g id="Layer_1-2" data-name="Layer 1"><line class="cls-1" x1="4.58" y1="3.91" x2="22.71" y2="24.91"/><line class="cls-1" x1="39.58" y1="3.91" x2="22.71" y2="24.91"/><line class="cls-1" x1="22.58" y1="49.41" x2="22.71" y2="24.91"/><path class="cls-2" d="M43.25.85c.88,1,.76,5.89-.25,6.83s-6.28.83-7.22-.18-1.45-5,.64-6.91C37.46-.37,42.4-.07,43.25.85Z"/><path class="cls-2" d="M8.25.85C9.13,1.8,9,6.74,8,7.68S1.72,8.51.78,7.5s-1.45-5,.64-6.91C2.46-.37,7.4-.07,8.25.85Z"/><path class="cls-2" d="M26.25,45.85c.88.95.76,5.89-.25,6.83s-6.28.83-7.22-.18-1.45-5,.64-6.91C20.46,44.63,25.4,44.93,26.25,45.85Z"/><path class="cls-2" d="M27.83,20.84c1.14,1.23,1,7.61-.33,8.82s-8.1,1.08-9.31-.23S16.31,23,19,20.52C20.35,19.27,26.73,19.66,27.83,20.84Z"/></g></g></svg>