<svg xmlns="http://www.w3.org/2000/svg" viewBox="0 0 46 59.39"><defs><style>.cls-1{fill:#bc8b4b;}.cls-2{font-size:26px;fill:#603813;font-family:ArialMT, Arial;}</style></defs><title>Asset 66</title><g id="Layer_2" data-name="Layer 2"><g id="Layer_1-2" data-name="Layer 1"><path class="cls-1" d="M23,59.39c-10,0-17.82-3.63-20-5.54-1.95-1.69-3-5.47-3-7.92V18.21c0-2.67-.11-7.71,1-8.82C1.85,8.45,12,12.66,23,12.66c13,0,19.35-2.27,22-2.27,1,0,1,5,1,7.82V45.93a9.29,9.29,0,0,1-3,7.13C40.82,54.85,33,59.39,23,59.39Z"/><path class="cls-1" d="M45,5c0,1.6-1.89,4.08-7.07,5a74.54,74.54,0,0,1-13,1C11.9,11,1,7.76,1,5s9.3-5,22-5S45,2.24,45,5Z"/><text class="cls-2" transform="translate(2.02 41.26)">{{ }}</text></g></g></svg>