<svg xmlns="http://www.w3.org/2000/svg" viewBox="0 0 65.95 37.23"><defs><style>.cls-1{fill:#3b8bff;stroke:#3b8bff;}.cls-1,.cls-2{stroke-miterlimit:10;stroke-width:0.23px;}.cls-2{fill:#26384c;stroke:#26384c;}</style></defs><title>Asset 57</title><g id="Layer_2" data-name="Layer 2"><g id="Layer_1-2" data-name="Layer 1"><path class="cls-1" d="M57.51,12.12c-4.8.4-55.62.15-55.62.15s-4-3.86,0-4.06,55.62-.09,55.62-.09-.95-8.12-.8-8c.53.44,8,9.87,8.13,10.81.06.58-6.85,11-8.13,11.19C56.55,22.14,57.7,12.1,57.51,12.12Z"/><path class="cls-2" d="M8.45,25.12c4.8-.41,55.61-.16,55.61-.16s4,3.86,0,4.07-55.61.09-55.61.09.94,8.12.8,8c-.54-.45-8-9.88-8.13-10.81-.06-.58,6.85-11,8.13-11.19C9.41,15.09,8.26,25.13,8.45,25.12Z"/></g></g></svg>