<svg xmlns="http://www.w3.org/2000/svg" viewBox="0 0 46 59"><defs><style>.cls-1{fill:#bc8b4b;}</style></defs><title>Asset 45</title><g id="Layer_2" data-name="Layer 2"><g id="Layer_1-2" data-name="Layer 1"><path class="cls-1" d="M23,59C13,59,5.2,55.36,3,53.46,1.05,51.76,0,48,0,45.54V17.82C0,15.14-.11,10.1,1,9,1.85,8.06,12,12.27,23,12.27,36,12.27,42.35,10,45,10c1,0,1,5,1,7.82V45.54a9.26,9.26,0,0,1-3,7.12C40.82,54.46,33,59,23,59Z"/><path class="cls-1" d="M45,5c0,1.6-1.89,4.08-7.07,5a74.7,74.7,0,0,1-13,1C11.91,11,1,7.76,1,5s9.29-5,22-5S45,2.24,45,5Z"/></g></g></svg>