<svg xmlns="http://www.w3.org/2000/svg" xmlns:xlink="http://www.w3.org/1999/xlink" viewBox="0 0 78.62 62.6"><defs><style>.cls-1,.cls-3{fill:none;}.cls-2{fill:#265791;}.cls-3{stroke:#3b8bff;stroke-miterlimit:10;stroke-width:1.9px;}.cls-4{isolation:isolate;}.cls-5{clip-path:url(#clip-path);}.cls-6{clip-path:url(#clip-path-2);}.cls-7{clip-path:url(#clip-path-3);}.cls-8{fill:#3b8bff;}.cls-9{fill:#336bba;}.cls-10{clip-path:url(#clip-path-4);}.cls-11{clip-path:url(#clip-path-5);}.cls-12{clip-path:url(#clip-path-6);}.cls-13{clip-path:url(#clip-path-7);}.cls-14{clip-path:url(#clip-path-8);}.cls-15{fill:#bc8b4b;}</style><clipPath id="clip-path"><polygon class="cls-1" points="40.74 24.58 50.85 23.47 51 36.35 40.89 37.46 40.74 24.58"/></clipPath><clipPath id="clip-path-2"><polygon class="cls-1" points="71.09 25.28 71.24 38.16 50.99 36.39 50.84 23.51 71.09 25.28"/></clipPath><clipPath id="clip-path-3"><polygon class="cls-1" points="61.35 26.38 61.5 39.26 40.89 37.46 40.74 24.58 61.35 26.38"/></clipPath><clipPath id="clip-path-4"><polygon class="cls-1" points="71.46 25.28 71.61 38.16 61.5 39.26 61.35 26.38 71.46 25.28"/></clipPath><clipPath id="clip-path-5"><polygon class="cls-1" points="7.74 8.06 17.84 6.96 18 19.84 7.89 20.95 7.74 8.06"/></clipPath><clipPath id="clip-path-6"><polygon class="cls-1" points="38.09 8.77 38.24 21.65 18 19.88 17.84 6.99 38.09 8.77"/></clipPath><clipPath id="clip-path-7"><polygon class="cls-1" points="28.34 9.87 28.5 22.75 7.89 20.95 7.74 8.06 28.34 9.87"/></clipPath><clipPath id="clip-path-8"><polygon class="cls-1" points="38.46 8.76 38.61 21.64 28.5 22.75 28.34 9.87 38.46 8.76"/></clipPath><symbol id="mkt_top" data-name="mkt_top" viewBox="0 0 71 36"><rect class="cls-2" width="71" height="36" rx="4" ry="4"/></symbol></defs><title>Asset 59</title><g id="Layer_2" data-name="Layer 2"><g id="Layer_1-2" data-name="Layer 1"><path class="cls-3" d="M75.14,59.12c-5.69,5.69-72.08,0-72.08,0s-4.75-54.06,0-56.91,72.08,0,72.08,0S80.83,53.43,75.14,59.12Z"/><use id="mkt_top-3" data-name="mkt_top" width="71" height="36" transform="translate(55.29 28.26) scale(0.12 0.29)" xlink:href="#mkt_top"/><g class="cls-4"><g class="cls-4"><g class="cls-5"><path class="cls-2" d="M50.43,35l-8.6.94c-.3,0-.55-.5-.56-1.19L41.17,26c0-.69.23-1.28.53-1.31l8.6-.94c.3,0,.56.5.56,1.19L51,33.66c0,.69-.23,1.28-.54,1.31"/></g></g><g class="cls-4"><g class="cls-6"><path class="cls-2" d="M52.29,36.22l17.16,1.5c.6.05,1.09-.53,1.08-1.3l-.12-9.72a1.44,1.44,0,0,0-1.1-1.49l-17.17-1.5c-.6-.05-1.09.53-1.08,1.29l.12,9.73a1.45,1.45,0,0,0,1.11,1.49"/></g></g><g class="cls-4"><g class="cls-7"><path class="cls-8" d="M46.66,26.67c.32.06.54.28.5.5-.48,2.52-1.39,5.36-.8,7.78.06.25-.21.45-.58.41h0L45,35.28c-.34,0-.6-.27-.57-.49L46,27c0-.2.29-.33.58-.3h.1m3.5.39c.36,0,.64.27.59.51-.48,2.49-1.4,5.39-.81,7.83.06.25-.21.44-.57.41h0l-.74-.08c-.34,0-.6-.27-.56-.5l1.52-7.86c0-.2.28-.33.57-.31h0m3.61.32c.36,0,.63.27.59.51-.47,2.39-1.44,5.47-.84,8,.06.25-.21.45-.57.42h0l-.74-.09c-.34,0-.6-.26-.56-.49l1.54-8c0-.21.28-.34.58-.31h0m3.61.31c.35,0,.63.28.58.51-.44,2.27-1.47,5.57-.86,8.09.06.25-.21.44-.57.41h0l-.73-.08c-.35,0-.6-.27-.57-.5L56.77,28c0-.2.28-.33.58-.31h0M57.9,39a5.5,5.5,0,0,0,2.21,0c.7-.24,1.27-1.76,1.32-3.62a25.17,25.17,0,0,0-.75-8.24c0-.18-.2-.3-.6-.37-3.53-.62-12.87-1.57-18.24-2.08h-.08a1.29,1.29,0,0,0-.72.07.53.53,0,0,0-.21.47,44.37,44.37,0,0,0,.38,10.15,1.14,1.14,0,0,0,.43.86,2.53,2.53,0,0,0,1,.34c4.16.86,11.56,2.13,15.28,2.45"/><path class="cls-9" d="M56.53,36.7c.36,0,.63-.16.57-.41-.61-2.52.42-5.82.86-8.09,0-.23-.23-.47-.58-.51h0c-.3,0-.55.11-.58.31l-1.56,8.12c0,.23.22.46.57.5l.73.08h0"/><path class="cls-9" d="M53,36.26c.36,0,.63-.17.57-.42-.6-2.48.37-5.56.84-8,0-.24-.23-.48-.59-.51h0c-.3,0-.55.1-.58.31l-1.54,8c0,.23.22.46.56.49l.74.09h0"/><path class="cls-9" d="M49.37,35.81c.36,0,.63-.16.57-.41-.59-2.44.33-5.34.81-7.83,0-.24-.23-.48-.59-.51h0c-.29,0-.54.11-.57.31l-1.52,7.86c0,.23.22.46.56.5l.74.08h0"/><path class="cls-9" d="M45.78,35.36c.37,0,.64-.16.58-.41-.59-2.42.32-5.26.8-7.78,0-.22-.18-.44-.5-.5h-.1c-.29,0-.55.1-.58.3l-1.52,7.83c0,.22.23.45.57.49l.73.08h0"/></g></g><g class="cls-4"><g class="cls-10"><path class="cls-8" d="M67.06,27.59a.35.35,0,0,1,.4.41c-.29,2.35-1,5.82-.56,8.25a.43.43,0,0,1-.38.5h0l-.5,0a.35.35,0,0,1-.39-.4l1-8.4a.47.47,0,0,1,.39-.4h0M64.59,39a27.71,27.71,0,0,0,6.48-1.45.63.63,0,0,0,.4-.35c.2-.34.1-.61.09-1a50.41,50.41,0,0,0-1-9.86,1.31,1.31,0,0,0-.34-.62.87.87,0,0,0-.68-.22c-3.68.41-8.08,1.2-8.08,1.2.27,0,.38.1.41.27A36,36,0,0,1,62.39,35c0,1.87-.41,3.49-.9,3.84.13.27,1.43.28,3.1.1"/><path class="cls-9" d="M66.52,36.75a.43.43,0,0,0,.38-.5c-.43-2.43.27-5.9.56-8.25a.35.35,0,0,0-.4-.41h0a.47.47,0,0,0-.39.4l-1,8.4a.35.35,0,0,0,.39.4l.5,0h0"/></g></g></g><use id="mkt_top-6" data-name="mkt_top" width="71" height="36" transform="translate(22.29 11.75) scale(0.12 0.29)" xlink:href="#mkt_top"/><g class="cls-4"><g class="cls-4"><g class="cls-11"><path class="cls-2" d="M17.43,18.46l-8.6.94c-.3,0-.55-.5-.56-1.19l-.1-8.75c0-.68.23-1.27.53-1.3l8.6-.94c.3,0,.55.5.56,1.18l.1,8.75c0,.69-.23,1.28-.53,1.31"/></g></g><g class="cls-4"><g class="cls-12"><path class="cls-2" d="M19.29,19.7l17.16,1.5c.6.05,1.09-.53,1.08-1.29l-.12-9.73a1.42,1.42,0,0,0-1.1-1.48L19.14,7.2c-.6-.06-1.09.53-1.08,1.29l.12,9.72a1.44,1.44,0,0,0,1.11,1.49"/></g></g><g class="cls-4"><g class="cls-13"><path class="cls-8" d="M13.66,10.15c.31.06.54.29.5.5-.49,2.52-1.39,5.36-.8,7.78.06.26-.22.45-.58.42h0L12,18.76c-.34,0-.6-.26-.57-.49L13,10.45c0-.2.28-.33.58-.31h.1m3.5.4c.35,0,.63.27.59.5-.49,2.5-1.4,5.4-.81,7.83.06.25-.22.45-.58.42h0l-.73-.08c-.34,0-.6-.26-.57-.49l1.53-7.87c0-.2.27-.32.57-.3h0m3.61.32c.35,0,.63.27.58.5-.46,2.39-1.43,5.48-.83,8,.06.25-.22.44-.58.41h0l-.73-.08c-.34,0-.6-.27-.56-.5l1.54-8c0-.2.28-.33.57-.3h0m3.6.31c.36,0,.64.27.59.51-.45,2.27-1.47,5.56-.86,8.09.06.25-.22.44-.57.41h0l-.74-.08c-.34,0-.6-.27-.56-.5l1.56-8.13c0-.2.28-.33.57-.3h0m.52,11.29a5.77,5.77,0,0,0,2.22,0c.7-.24,1.27-1.76,1.32-3.63a25,25,0,0,0-.76-8.24c0-.18-.19-.29-.59-.37C23.54,9.58,14.21,8.63,8.84,8.13H8.75A1.25,1.25,0,0,0,8,8.2a.54.54,0,0,0-.22.46A45.05,45.05,0,0,0,8.2,18.82a1.19,1.19,0,0,0,.43.85,2.59,2.59,0,0,0,1,.35c4.15.85,11.56,2.12,15.27,2.45"/><path class="cls-9" d="M23.53,20.19c.35,0,.63-.16.57-.41-.61-2.53.41-5.82.86-8.09.05-.24-.23-.48-.59-.51h0c-.29,0-.54.1-.57.3l-1.56,8.13c0,.23.22.46.56.5l.74.08h0"/><path class="cls-9" d="M19.94,19.74c.36,0,.64-.16.58-.41-.6-2.48.37-5.57.83-8,0-.23-.23-.47-.58-.5h0c-.29,0-.54.1-.57.3l-1.54,8c0,.23.22.46.56.5l.73.08h0"/><path class="cls-9" d="M16.36,19.3c.36,0,.64-.17.58-.42-.59-2.43.32-5.33.81-7.83,0-.23-.24-.47-.59-.5h0c-.3,0-.54.1-.57.3L15,18.72c0,.23.23.45.57.49l.73.08h0"/><path class="cls-9" d="M12.78,18.85c.36,0,.64-.16.58-.42-.59-2.42.31-5.26.8-7.78,0-.21-.19-.44-.5-.5h-.1c-.3,0-.55.11-.58.31l-1.52,7.82c0,.23.23.46.57.49l.73.09h0"/></g></g><g class="cls-4"><g class="cls-14"><path class="cls-8" d="M34.06,11.08a.35.35,0,0,1,.4.41c-.3,2.34-1,5.81-.56,8.24a.45.45,0,0,1-.39.51h0l-.51,0a.37.37,0,0,1-.39-.41l1-8.39a.43.43,0,0,1,.39-.4h0M31.59,22.47A27.71,27.71,0,0,0,38.07,21a.65.65,0,0,0,.4-.36c.2-.34.1-.61.08-1.05a49.66,49.66,0,0,0-1-9.86,1.41,1.41,0,0,0-.34-.62.9.9,0,0,0-.68-.21c-3.69.4-8.08,1.2-8.08,1.2.27,0,.38.09.41.27a35,35,0,0,1,.54,8.13c0,1.88-.41,3.49-.89,3.85.13.27,1.43.28,3.1.1"/><path class="cls-9" d="M33.51,20.24a.45.45,0,0,0,.39-.51c-.43-2.43.26-5.9.56-8.24a.35.35,0,0,0-.4-.41h0a.43.43,0,0,0-.39.4l-1,8.39a.37.37,0,0,0,.39.41l.51,0h0"/></g></g></g><path class="cls-15" d="M21.73,55.78a9.29,9.29,0,0,1-5.27-1.46,3.12,3.12,0,0,1-.79-2.09v-7.3c0-.7,0-2,.25-2.32s2.91.86,5.81.86a34.93,34.93,0,0,0,5.78-.6c.26,0,.28,1.32.28,2.06v7.3A2.44,2.44,0,0,1,27,54.11,9.09,9.09,0,0,1,21.73,55.78Z"/><path class="cls-15" d="M27.53,41.56c0,.42-.5,1.07-1.86,1.31a19.09,19.09,0,0,1-3.43.27c-3.43,0-6.3-.86-6.3-1.58s2.45-1.32,5.79-1.32S27.53,40.83,27.53,41.56Z"/></g></g></svg>