<svg xmlns="http://www.w3.org/2000/svg" viewBox="0 0 446.92 124.47"><defs><style>.cls-1{fill:#231f20;}.cls-2{fill:#2e307e;}.cls-3{fill:none;}</style></defs><title>Asset 32</title><g id="Layer_2" data-name="Layer 2"><g id="Reversed_Logo" data-name="Reversed Logo"><path class="cls-1" d="M165.92,63.45V80.11h-4.74V63.45L147.25,40h5.35l10.94,18.85,11-18.85h5.29Z"/><path class="cls-1" d="M202.34,80.11h-4.74V40h4.74Z"/><path class="cls-1" d="M250.06,51.6c0,6.81-4.93,11.73-12.83,11.73h-9.36V80.11h-4.74V40h14.11C245.14,40,250.06,44.85,250.06,51.6Zm-22.19-7.36V59.08h9.24c5.29,0,8-3.1,8-7.42s-2.74-7.42-8-7.42Z"/><path class="cls-1" d="M293.47,44.24h-21V56.52h16.05v4.26H272.5V75.86h21.7v4.26H267.75V40h25.72Z"/><path class="cls-1" d="M337.67,44.24h-21V56.52h16.05v4.26H316.69V75.86h21.7v4.26H312V40h25.72Z"/><path class="cls-1" d="M362.66,77a3.83,3.83,0,1,1-3.83-3.83A3.78,3.78,0,0,1,362.66,77Z"/><path class="cls-1" d="M387.1,80.11h-4.74V40h4.74Z"/><path class="cls-1" d="M446.92,60a20.82,20.82,0,1,1-20.85-20.73A20.63,20.63,0,0,1,446.92,60ZM410.2,60c0,9.36,6.75,16.42,15.93,16.42S442,69.35,442,60s-6.81-16.29-15.87-16.29S410.2,50.69,410.2,60Z"/><path class="cls-2" d="M52.72,50.66,26.88,47l-2.57,1.52C21,67.33,27.92,80.62,29.94,84l20.52-9.67,8.77-4.13h0Z"/><polygon class="cls-2" points="37.64 82.83 37.64 82.83 43.6 80.02 37.64 82.83"/><path class="cls-2" d="M69.75,53.8,62.39,69.67l18.88-4.51A19,19,0,0,1,69.75,53.8Z"/><line class="cls-2" x1="92.39" y1="65.41" x2="92.38" y2="65.41"/><path class="cls-2" d="M78.26,94.66"/><path class="cls-2" d="M92.35,63.36l-1.78.43A16.72,16.72,0,0,0,92.35,63.36Z"/><polygon class="cls-2" points="77.89 36.06 77.89 36.06 77.89 36.06 77.89 36.06"/><polygon class="cls-2" points="106.62 62.04 113.24 61.56 118.41 50.34 106.62 62.04"/><path class="cls-2" d="M71.63,106.39,60,72.32,43.6,80l-6,2.81L31.89,85.6h0l-.81.39a51.43,51.43,0,0,0,5.82,8.29l0,.05a26,26,0,0,0,1.86,2.19L46.92,80.9l21.65,19.95-9.64,9.47a40.11,40.11,0,0,0,5.76,1.9Z"/><path class="cls-2" d="M123.08,35.45h0l-.1,0c-.62-.17-3.79-1-4.15-1h0a42.47,42.47,0,0,0-4.33-.64l-.44,0a48.6,48.6,0,0,1-7.47-1.16A34.72,34.72,0,0,1,100,30.06a47.53,47.53,0,0,1-5.18-3.12c-.71-.47-1.41-.94-2.13-1.39a15,15,0,0,0-6.58-2.39,42.35,42.35,0,0,0-7.12,0l-1.77.12c-1.5.1-3.05.21-4.57.35l-1.8.17c-2.27.21-4.62.42-6.89.81a35,35,0,0,0-13.13,4.94,19.28,19.28,0,0,0-4.07,3.33c-.25.28-.51.54-.77.81s-.69.7-1,1.07c-.06.08-.11.16-.17.24a3.61,3.61,0,0,0-.52,1c-.06.17-.13.43,0,.58a.55.55,0,0,0,.56.11,7.58,7.58,0,0,1,.79-.11c.58-.06,1.17-.1,1.75-.14l.7,0h0l9.12-.31h0c.68,0,1.36,0,2,0h.4L65.14,36,68.58,36l1.85,0c2.15,0,4.3-.07,6.46-.08,3.61,0,6.37,0,9,0,1.16,0,2.33,0,3.47.08l2.78.07c2.49,0,5.15.07,7.83.07,2.13,0,4.34,0,6.58-.11l2.1-.08h0c1.73-.07,14.76-.09,14.76-.09S123.61,35.61,123.08,35.45Z"/><path class="cls-2" d="M128.08,33.57a16.1,16.1,0,0,0-5.31-7.25,19.08,19.08,0,0,0-4.57-2.54,27.87,27.87,0,0,0-8-1.81l-.78,0-.58,0V24.5l.2,6.55.07,0,.43.15.21,0a17.52,17.52,0,0,0,3.29.53c1.55.22,3.16.46,4.75.73a22.82,22.82,0,0,1,5.67,1.61,20.39,20.39,0,0,1,2.11,1.15,16.61,16.61,0,0,0,1.69,1.18l.05,0,.13.06h0a.56.56,0,0,0,.88-.51h0A4.52,4.52,0,0,0,128.08,33.57Z"/><path class="cls-2" d="M71.1,38.38h-12l-28,7.55,23.15,3.24,6.47,19.42h0l.09.28,4.55-9.81,3.13-6.75-3.13,6.75L69,51.29q-.12-.64-.2-1.28h0a19,19,0,0,1-.14-2.25c0-.07,0-.15,0-.22h0a18.76,18.76,0,0,1,1.45-7l.86-1.78.13-.24h0Z"/><path class="cls-2" d="M102.91,37.76H98.57c-.12,1.73-1.18,3.09-2.48,3.09s-2.36-1.36-2.48-3.09H73.3c-.18.34-.55,1-.95,1.89a15.9,15.9,0,0,0-1,2.41l0,.13a9.63,9.63,0,0,0-.48,2h0a16.84,16.84,0,0,0-.26,2.93h0v0s0,.1,0,.15l0-.11,0,.11A16.93,16.93,0,0,0,85.59,64L86,64c.49,0,1,.07,1.47.07a17,17,0,0,0,3.06-.28l1.78-.43q.59-.18,1.16-.39l.62-.25.15-.06h.17l1-.07h.11l.45,0,.77-.06,6.7-.49,1-.07.26,0,.71-.73,1.23-1.26,1-1,1-1,8.63-8.82Z"/><path class="cls-2" d="M87.51,66c-.44,0-.88,0-1.32-.05l-15,3.5-8.79,2-.47.11L62.39,73l8.29,24.2,2.64,7.69L87.26,76h0l3.15-6.53,2-4.09A18.87,18.87,0,0,1,87.51,66Z"/><path class="cls-3" d="M93.62,37.76h5s-.14,2.84-2.48,3.09C96.1,40.84,93.94,41,93.62,37.76Z"/><path class="cls-2" d="M107,29.53q0-1.18-.07-2.36c-.06-2.06-.12-4.19-.25-6.28a54.28,54.28,0,0,0-1.13-8.51c-.42-1.89-.9-5.74-1.36-7.59S103.4-.06,100.74,0c-2.42.06-5.39,2.24-7.84,2.84a39.79,39.79,0,0,1-9.77,1,55.05,55.05,0,0,1-7.18-.53c-3.69-.51-6-1.37-8.53,2a6.87,6.87,0,0,0-1.45,4c0,.82-.11,3.58-.2,4.37,0,.39-.09.77-.12,1.16q-.35,3.8-.7,7.59c0,.06,0,.11,0,.17l.87-.13,1-.13c1.12-.15,2.28-.31,3.42-.43l.32,0c2.18-.24,4.44-.49,6.67-.68,1.39-.12,2.8-.19,4.16-.25L82.81,21q.57,0,1.14,0a20.86,20.86,0,0,1,4.32.45,16.06,16.06,0,0,1,5.15,2.16c.88.54,1.75,1.12,2.59,1.68s1.88,1.25,2.84,1.83a30.39,30.39,0,0,0,7.34,3.35l.78.25C107,30.28,107,29.91,107,29.53Zm-6.4-10.2-4.29-2.16L92,19.48l.75-4.75-3.49-3.3,4.76-.77L96.14,6.3l2.19,4.28,4.78.61L99.69,14.6Z"/><path class="cls-2" d="M100.81,63.83c-1.44,12.2-5.94,27.36-18.6,36.52,0,0,20.11-.3,27.78-36.77Z"/><polygon class="cls-2" points="33.73 108.9 0 121.16 40.01 124.47 33.73 108.9"/><polygon class="cls-2" points="47.51 84.26 40.34 98.06 35.41 107.55 42.06 123.99 56.88 109.43 65.56 100.9 47.51 84.26"/></g></g></svg>