<svg xmlns="http://www.w3.org/2000/svg" viewBox="0 0 63.97 62"><defs><style>.cls-1{fill:#2e307e;}.cls-2{fill:none;}</style></defs><title>Asset 24</title><g id="Layer_2" data-name="Layer 2"><g id="Reversed_Logo" data-name="Reversed Logo"><path class="cls-1" d="M26.26,25.24l-12.87-1.8-1.28.76a26.24,26.24,0,0,0,2.8,17.65L25.14,37,29.51,35h0Z"/><polygon class="cls-1" points="18.75 41.26 18.75 41.26 21.72 39.86 18.75 41.26"/><path class="cls-1" d="M34.74,26.8l-3.66,7.9,9.41-2.25A9.47,9.47,0,0,1,34.74,26.8Z"/><line class="cls-1" x1="46.02" y1="32.58" x2="46.02" y2="32.58"/><path class="cls-1" d="M39,47.15"/><path class="cls-1" d="M46,31.56l-.89.21A8.33,8.33,0,0,0,46,31.56Z"/><polygon class="cls-1" points="38.8 17.96 38.8 17.96 38.8 17.96 38.8 17.96"/><polygon class="cls-1" points="53.12 30.91 56.41 30.67 58.99 25.08 53.12 30.91"/><path class="cls-1" d="M35.68,53,29.86,36l-8.14,3.84-3,1.4-2.87,1.38h0l-.41.19A25.62,25.62,0,0,0,18.38,47l0,0a12.94,12.94,0,0,0,.93,1.09l4-7.78,10.78,9.94L29.36,55a20,20,0,0,0,2.87.94Z"/><path class="cls-1" d="M61.31,17.66h-.06c-.31-.08-1.89-.5-2.06-.5h0A21.16,21.16,0,0,0,57,16.82l-.22,0a24.21,24.21,0,0,1-3.72-.58A17.29,17.29,0,0,1,49.83,15a23.68,23.68,0,0,1-2.58-1.55l-1.06-.69a7.45,7.45,0,0,0-3.28-1.19,21.1,21.1,0,0,0-3.55,0l-.88.06c-.75.05-1.52.1-2.28.18l-.9.08c-1.13.1-2.3.21-3.43.4a17.45,17.45,0,0,0-6.54,2.46,9.6,9.6,0,0,0-2,1.66l-.38.4c-.18.18-.34.35-.49.53l-.08.12a1.8,1.8,0,0,0-.26.49c0,.08-.06.21,0,.29a.27.27,0,0,0,.28.05l.39-.05.87-.07.35,0h0L28.53,18h1.21l2.72,0,1.71,0h.92l3.22,0c1.8,0,3.17,0,4.46,0l1.73,0,1.38,0c1.24,0,2.57,0,3.9,0,1.06,0,2.16,0,3.28-.05l1,0h0c.86,0,7.35,0,7.35,0S61.58,17.74,61.31,17.66Z"/><path class="cls-1" d="M63.8,16.72a8,8,0,0,0-2.64-3.61,9.51,9.51,0,0,0-2.27-1.26,13.89,13.89,0,0,0-4-.9l-.39,0h-.29V12.2l.1,3.26h0l.21.08.1,0a8.73,8.73,0,0,0,1.64.26c.77.11,1.57.23,2.37.36a11.37,11.37,0,0,1,2.82.8,10.16,10.16,0,0,1,1.05.57,8.28,8.28,0,0,0,.84.59h0l.06,0h0a.28.28,0,0,0,.44-.25h0A2.25,2.25,0,0,0,63.8,16.72Z"/><path class="cls-1" d="M35.42,19.12h-6l-14,3.76L27,24.5l3.22,9.67h0l0,.14,2.26-4.89,1.56-3.36-1.56,3.36,1.8-3.88q-.06-.32-.1-.64h0a9.45,9.45,0,0,1-.07-1.12s0-.07,0-.11h0a9.35,9.35,0,0,1,.72-3.5l.43-.89.06-.12h0Z"/><path class="cls-1" d="M51.26,18.81H49.1c-.06.86-.59,1.54-1.24,1.54s-1.17-.68-1.23-1.54H36.51c-.09.17-.27.52-.47.94a7.92,7.92,0,0,0-.49,1.2l0,.06a4.8,4.8,0,0,0-.24,1h0a8.39,8.39,0,0,0-.13,1.46h0s0,0,0,.07l0-.05,0,.05a8.43,8.43,0,0,0,7.48,8.3l.22,0c.24,0,.49,0,.73,0a8.47,8.47,0,0,0,1.52-.14l.89-.21.58-.2.31-.12.08,0h.09l.48,0h.06l.22,0,.38,0,3.34-.25.5,0h.13l.35-.36.61-.63.48-.49.48-.49,4.3-4.39Z"/><path class="cls-1" d="M43.59,32.9l-.66,0-7.48,1.74-4.38,1-.23.05.23.68,4.13,12.05,1.31,3.83,6.94-14.39h0L45,34.62l1-2A9.4,9.4,0,0,1,43.59,32.9Z"/><path class="cls-2" d="M46.64,18.81H49.1s-.07,1.41-1.24,1.54C47.87,20.35,46.8,20.44,46.64,18.81Z"/><path class="cls-1" d="M53.29,14.71q0-.59,0-1.18c0-1-.06-2.09-.13-3.13a27,27,0,0,0-.57-4.24c-.21-.94-.45-2.86-.68-3.78S51.51,0,50.18,0s-2.68,1.11-3.9,1.42a19.82,19.82,0,0,1-4.87.52,27.42,27.42,0,0,1-3.58-.26c-1.84-.25-3-.68-4.25,1a3.42,3.42,0,0,0-.72,2c0,.41-.06,1.78-.1,2.18,0,.19,0,.38-.06.58q-.18,1.89-.35,3.78s0,.06,0,.08l.43-.07.47-.06L35,11l.16,0c1.09-.12,2.21-.25,3.32-.34.69-.06,1.39-.09,2.07-.12l.74,0,.57,0a10.39,10.39,0,0,1,2.15.22,8,8,0,0,1,2.57,1.08c.44.27.87.56,1.29.84s.94.62,1.41.91a15.14,15.14,0,0,0,3.66,1.67l.39.12C53.29,15.09,53.29,14.9,53.29,14.71ZM50.1,9.63,48,8.55,45.85,9.7l.38-2.37L44.49,5.69l2.37-.39,1-2.17L49,5.27l2.38.3-1.7,1.7Z"/><path class="cls-1" d="M50.22,31.8C49.5,37.87,47.26,45.43,41,50c0,0,10-.15,13.84-18.32Z"/><polygon class="cls-1" points="16.8 54.25 0 60.35 19.93 62 16.8 54.25"/><polygon class="cls-1" points="23.67 41.98 20.1 48.85 17.64 53.57 20.95 61.77 28.33 54.51 32.66 50.26 23.67 41.98"/></g></g></svg>